<svg xmlns="http://www.w3.org/2000/svg" viewBox="50 70 430 390" x="0px" y="0px">
    <g>
        <path d="M382.63,132.22,366.06,148.8a4,4,0,0,0,5.66,5.66l16.57-16.58a4,4,0,1,0-5.66-5.66Z" />
        <path d="M353.85,161l-61.18,61.19a4,4,0,0,0,5.66,5.66l61.18-61.19a4,4,0,1,0-5.66-5.66Z" />
        <path d="M334.1,245.85a4,4,0,0,0,5.66,0L385.58,200a4,4,0,1,0-5.66-5.66L334.1,240.2A4,4,0,0,0,334.1,245.85Z" />
        <path d="M323.26,251l-6.81,6.81a4,4,0,1,0,5.65,5.66l6.82-6.82a4,4,0,1,0-5.66-5.65Z" />
        <path
            d="M290.13,289.83a4,4,0,0,0,5.65,0l15.64-15.64a4,4,0,0,0-5.65-5.66l-15.64,15.64A4,4,0,0,0,290.13,289.83Z" />
        <path d="M382.63,260.77a4,4,0,0,0,5.66,0l6.43-6.43a4,4,0,0,0-5.66-5.66l-6.43,6.43A4,4,0,0,0,382.63,260.77Z" />
        <path d="M371.82,265.93l-26.41,26.4a4,4,0,0,0,5.66,5.66l26.41-26.4a4,4,0,0,0-5.66-5.66Z" />
        <path d="M452.45,78.71H243.08a4,4,0,0,0-4,4V301a4,4,0,0,0,8,0V86.71H452.45a4,4,0,0,0,0-8Z" />
        <path
            d="M243.08,314.91a4,4,0,0,0-4,4v32.34a4,4,0,0,0,4,4H452.45a4,4,0,0,0,4-4V100.69a4,4,0,0,0-8,0V347.25H247.08V318.91A4,4,0,0,0,243.08,314.91Z" />
        <path d="M470.5,448.59a4,4,0,0,0-4-4H63.8a4,4,0,0,0,0,8H466.5A4,4,0,0,0,470.5,448.59Z" />
        <path
            d="M466.5,418.19H218.23V404.52h2.88a4,4,0,0,0,0-8h-2.88V361.44a4,4,0,0,0-8,0v35.08H200V361.14a23.36,23.36,0,0,0-38.86-17.5V334a4,4,0,0,0-4-4H114.62a4,4,0,0,0-4,4v8.22a4,4,0,0,0,8,0V338h34.54v58.53H118.62V356.09a4,4,0,0,0-8,0v40.43h-9.89V361.44a4,4,0,0,0-8,0v35.08H87.67a4,4,0,0,0,0,8h5.06v13.67H63.8a4,4,0,0,0,0,8H466.5a4,4,0,0,0,0-8ZM210.23,404.52v13.67H200V404.52ZM192,418.19H161.16V404.52H192Zm-30.86-49.93a4,4,0,0,0,.1-.86v-6.26a15.38,15.38,0,0,1,30.76,0v35.38H161.16Zm-8,36.26v13.67H118.62V404.52Zm-52.43,0h9.89v13.67h-9.89Z" />
        <path
            d="M185.05,335.29a4,4,0,0,0,4-4v-6.67a4,4,0,0,0-4-4H168.23a4,4,0,0,0-4,4v6.67a4,4,0,0,0,8,0v-2.67h8.82v2.67A4,4,0,0,0,185.05,335.29Z" />
        <path
            d="M162.16,301.89a4,4,0,0,0,0-8H135.89a4,4,0,0,0-4,4v11.72h-8a4,4,0,0,0-4,4v8.48a4,4,0,0,0,8,0v-4.48h15.94v4.48a4,4,0,0,0,8,0v-8.48a4,4,0,0,0-4-4h-8v-7.72Z" />
        <path
            d="M59.56,118a4,4,0,0,0,4,4H82.9v80.73a32.83,32.83,0,0,0,32.8,32.79h58.93a4,4,0,0,0,4-4v-110h37.48a4,4,0,0,0,0-8H206v-3.93a19.08,19.08,0,0,0-19.06-19.06,4,4,0,0,0,0,8A11.07,11.07,0,0,1,198,109.58v3.93H174.63a4,4,0,0,0-4,4v93.54h-59.7a4,4,0,0,0,0,8h59.7v8.49H115.7a24.83,24.83,0,0,1-24.8-24.79V118a19.53,19.53,0,0,1,19.5-19.5h60.23v4.65a4,4,0,1,0,8,0V94.52a4,4,0,0,0-4-4H110.4A27.54,27.54,0,0,0,83.2,114H63.56A4,4,0,0,0,59.56,118Z" />
    </g>
</svg>