<svg xmlns="http://www.w3.org/2000/svg" version="1.1" x="0px" y="0px" viewBox="0 0 140 140" xml:space="preserve">
    <path
        d="M128,43.3203125h-16.1699219V32.2138672c0-3.1835938-2.5898438-5.7734375-5.7734375-5.7734375h-6.1015625V8  c0-1.6542969-1.3457031-3-3-3H43.0449219c-1.6542969,0-3,1.3457031-3,3v18.4404297h-6.1015625  c-3.1835938,0-5.7734375,2.5898438-5.7734375,5.7734375v11.1064453H12c-3.8598633,0-7,3.140625-7,7v47.359375  c0,3.859375,3.1401367,7,7,7h28.0449219V132c0,1.6542969,1.3457031,3,3,3h53.9101562c1.6542969,0,3-1.3457031,3-3v-27.3203125H128  c3.8598633,0,7-3.140625,7-7v-47.359375C135,46.4609375,131.8598633,43.3203125,128,43.3203125z M106.0566406,28.4404297  c2.0805664,0,3.7734375,1.6923828,3.7734375,3.7734375v11.1064453h-9.875V28.4404297H106.0566406z M42.0449219,8  c0-0.5517578,0.4487305-1,1-1h53.9101562c0.5512695,0,1,0.4482422,1,1v19.4162598  c-0.0002441,0.0085449-0.0048828,0.015564-0.0048828,0.0241699s0.0046387,0.015625,0.0048828,0.0241699v15.8557129H42.0449219V8z   M30.1699219,32.2138672c0-2.0810547,1.6928711-3.7734375,3.7734375-3.7734375h6.1015625v14.8798828h-9.875V32.2138672z   M98.9550781,89.6953125H41.0449219h-8v-7.75h73.9101562v7.75H98.9550781z M97.9550781,132c0,0.5517578-0.4487305,1-1,1H43.0449219  c-0.5512695,0-1-0.4482422-1-1V91.6953125h55.9101562V132z M133,97.6796875c0,2.7568359-2.2431641,5-5,5H99.9550781v-10.984375h7  c1.1030273,0,2-0.8974609,2-2v-7.75c0-1.1025391-0.8969727-2-2-2H33.0449219c-1.1030273,0-2,0.8974609-2,2v7.75  c0,1.1025391,0.8969727,2,2,2h7v10.984375H12c-2.7568359,0-5-2.2431641-5-5v-47.359375c0-2.7568359,2.2431641-5,5-5h17.1699219  h11.875h57.9101562h11.875H128c2.7568359,0,5,2.2431641,5,5V97.6796875z" />
    <path
        d="M120.605957,53.4707031c-3.5361328,0-6.4130859,2.8769531-6.4130859,6.4140625  c0,3.5361328,2.8769531,6.4130859,6.4130859,6.4130859c3.5366211,0,6.4135742-2.8769531,6.4135742-6.4130859  C127.0195312,56.3476562,124.1425781,53.4707031,120.605957,53.4707031z M120.605957,64.2978516  c-2.4335938,0-4.4130859-1.9794922-4.4130859-4.4130859s1.9794922-4.4140625,4.4130859-4.4140625  s4.4135742,1.9804688,4.4135742,4.4140625S123.0395508,64.2978516,120.605957,64.2978516z" />
    <path
        d="M103.0083008,53.4707031c-3.5366211,0-6.4135742,2.8769531-6.4135742,6.4140625  c0,3.5361328,2.8769531,6.4130859,6.4135742,6.4130859c3.5361328,0,6.4130859-2.8769531,6.4130859-6.4130859  C109.4213867,56.3476562,106.5444336,53.4707031,103.0083008,53.4707031z M103.0083008,64.2978516  c-2.4335938,0-4.4135742-1.9794922-4.4135742-4.4130859s1.9799805-4.4140625,4.4135742-4.4140625  s4.4130859,1.9804688,4.4130859,4.4140625S105.4418945,64.2978516,103.0083008,64.2978516z" />
    <path
        d="M52.3251953,102.9599609h35.3496094c0.5522461,0,1-0.4472656,1-1s-0.4477539-1-1-1H52.3251953c-0.5522461,0-1,0.4472656-1,1  S51.7729492,102.9599609,52.3251953,102.9599609z" />
    <path
        d="M52.3251953,113.3476562h35.3496094c0.5522461,0,1-0.4472656,1-1s-0.4477539-1-1-1H52.3251953c-0.5522461,0-1,0.4472656-1,1  S51.7729492,113.3476562,52.3251953,113.3476562z" />
    <path
        d="M52.3251953,123.734375h35.3496094c0.5522461,0,1-0.4472656,1-1s-0.4477539-1-1-1H52.3251953c-0.5522461,0-1,0.4472656-1,1  S51.7729492,123.734375,52.3251953,123.734375z" />
</svg>