<svg xmlns="http://www.w3.org/2000/svg" xml:space="preserve" version="1.1" viewBox="0 0 333 315" x="0px" y="0px">
  <defs>
    <style type="text/css">
      .str0 {
        stroke: black;
        stroke-width: 6.94488
      }

      .fil0 {
        fill: none
      }
    </style>
  </defs>
  <g>
    <path class="fil0 str0"
      d="M40 20l254 0c11,0 21,9 21,21l0 244c0,7 -6,13 -13,13l-271 0c-7,0 -13,-6 -13,-13l0 -244c0,-12 10,-21 22,-21z" />
    <line class="fil0 str0" x1="126" y1="20" x2="126" y2="298" />
    <line class="fil0 str0" x1="230" y1="20" x2="230" y2="298" />
    <line class="fil0 str0" x1="230" y1="109" x2="315" y2="109" />
    <line class="fil0 str0" x1="230" y1="197" x2="315" y2="197" />
    <line class="fil0 str0" x1="230" y1="245" x2="315" y2="245" />
    <line class="fil0 str0" x1="264" y1="223" x2="283" y2="223" />
    <line class="fil0 str0" x1="264" y1="274" x2="283" y2="274" />
    <line class="fil0 str0" x1="157" y1="143" x2="157" y2="163" />
    <line class="fil0 str0" x1="105" y1="143" x2="105" y2="163" />
    <line class="fil0 str0" x1="43" y1="298" x2="43" y2="314" />
    <line class="fil0 str0" x1="299" y1="298" x2="299" y2="314" />
  </g>
</svg>