<svg xmlns="http://www.w3.org/2000/svg" version="1.1" x="0px" y="0px" viewBox="60 60 380 380">
    <g>
        <g>
            <g>
                <g>
                    <g>
                        <path style=""
                            d="M124.831,131.07h-33.6c-3.181,0-5.76-2.579-5.76-5.76v-33.6       c0-3.181,2.579-5.76,5.76-5.76l33.6,0c3.181,0,5.76,2.579,5.76,5.76v33.6C130.591,128.491,128.012,131.07,124.831,131.07       L124.831,131.07z M96.991,119.55h22.08V97.47l-22.08,0V119.55z"
                            fill-rule="evenodd" clip-rule="evenodd" />
                    </g>
                    <g>
                        <path style=""
                            d="M401.05,131.31h-33.6c-3.181,0-5.76-2.579-5.76-5.76v-33.6       c0-3.181,2.579-5.76,5.76-5.76h33.6c3.181,0,5.76,2.579,5.76,5.76v33.6C406.81,128.731,404.231,131.31,401.05,131.31       L401.05,131.31z M373.21,119.79h22.08V97.71h-22.08V119.79z"
                            fill-rule="evenodd" clip-rule="evenodd" />
                    </g>
                    <g>
                        <path style=""
                            d="M401.29,407.529h-33.6c-3.181,0-5.76-2.579-5.76-5.76v-33.6       c0-3.181,2.579-5.76,5.76-5.76h33.6c3.181,0,5.76,2.579,5.76,5.76v33.6C407.05,404.95,404.471,407.529,401.29,407.529       L401.29,407.529z M373.45,396.009h22.08v-22.08h-22.08V396.009z"
                            fill-rule="evenodd" clip-rule="evenodd" />
                    </g>
                    <g>
                        <path style=""
                            d="M125.07,407.289h-33.6c-3.181,0-5.76-2.579-5.76-5.76v-33.6       c0-3.181,2.579-5.76,5.76-5.76h33.6c3.181,0,5.76,2.579,5.76,5.76v33.6C130.83,404.711,128.252,407.289,125.07,407.289       L125.07,407.289z M97.231,395.769h22.08v-22.08h-22.08V395.769z"
                            fill-rule="evenodd" clip-rule="evenodd" />
                    </g>
                </g>
                <g>
                    <g>
                        <path style=""
                            d="M245.104,311.321c-11.09,0-20.114-9.023-20.114-20.113v-24.596       c0-22.948,13.617-43.643,34.692-52.724c6.308-2.718,10.384-8.912,10.384-15.781v-5.212c0-13.89-11.166-25.221-24.891-25.26       c-0.023,0-0.048,0-0.071,0c-10.755,0-20.265,6.849-23.683,17.064c-2.733,8.169-10.388,13.658-19.048,13.658       c-6.569,0-12.525-3.054-16.354-8.378c-3.82-5.311-4.817-11.91-2.737-18.105c0.525-1.563,1.118-3.13,1.764-4.656       c3.285-7.765,7.982-14.735,13.962-20.715c5.98-5.98,12.949-10.678,20.715-13.962c8.049-3.405,16.589-5.131,25.381-5.131       c8.792,0,17.331,1.726,25.381,5.131c7.765,3.285,14.735,7.982,20.715,13.962c5.98,5.98,10.678,12.95,13.962,20.715       c3.405,8.05,5.131,16.589,5.131,25.381v5.509c0,22.947-13.617,43.643-34.692,52.724c-6.308,2.718-10.384,8.913-10.384,15.781       v24.596C265.217,302.298,256.194,311.321,245.104,311.321L245.104,311.321z M245.104,156.115c0.035,0,0.069,0,0.103,0       c20.059,0.056,36.379,16.555,36.379,36.78v5.212c0,11.473-6.808,21.82-17.345,26.361c-16.845,7.259-27.73,23.801-27.73,42.144       v24.596c0,4.738,3.855,8.594,8.594,8.594c4.738,0,8.593-3.855,8.593-8.594l0-24.596c0-11.473,6.808-21.82,17.345-26.36       c16.845-7.259,27.73-23.801,27.73-42.144v-5.509c0-7.241-1.42-14.271-4.221-20.893c-2.704-6.392-6.572-12.131-11.498-17.057       c-4.926-4.926-10.665-8.795-17.057-11.498c-6.622-2.801-13.652-4.221-20.893-4.221c-7.242,0-14.271,1.42-20.893,4.221       c-6.392,2.704-12.13,6.572-17.056,11.498c-4.926,4.926-8.795,10.665-11.499,17.057c-0.532,1.258-1.021,2.548-1.453,3.835       c-0.886,2.638-0.46,5.449,1.169,7.714c1.638,2.278,4.185,3.584,6.989,3.584c3.712,0,6.976-2.328,8.135-5.793       C215.489,166.123,229.388,156.115,245.104,156.115z"
                            fill-rule="evenodd" clip-rule="evenodd" />
                    </g>
                    <g>
                        <path style=""
                            d="M244.87,366.071c-11.219,0-20.347-9.128-20.347-20.347       c0-11.219,9.128-20.346,20.347-20.346c11.219,0,20.346,9.128,20.346,20.346C265.217,356.943,256.09,366.071,244.87,366.071       L244.87,366.071z M244.87,336.897c-4.867,0-8.827,3.959-8.827,8.827s3.959,8.827,8.827,8.827c4.867,0,8.826-3.96,8.826-8.827       S249.737,336.897,244.87,336.897z"
                            fill-rule="evenodd" clip-rule="evenodd" />
                    </g>
                </g>
                <g>
                    <path style=""
                        d="M421.94,431.06H70.58c-4.764,0-8.64-3.876-8.64-8.64V71.06      c0-4.764,3.876-8.64,8.64-8.64h351.36c4.764,0,8.64,3.876,8.64,8.64v351.36C430.58,427.184,426.705,431.06,421.94,431.06      L421.94,431.06z M73.46,419.54h345.6V73.94H73.46V419.54z"
                        fill-rule="evenodd" clip-rule="evenodd" />
                </g>
            </g>
        </g>
    </g>
</svg>