<svg xmlns="http://www.w3.org/2000/svg" version="1.1" viewBox="10 0 80 100">
    <g>
        <path
            d="M63.8,26.4v-7.7L53.1,7.1h-6.1L36.2,18.7v7.7l8.9,9.1h9.7L63.8,26.4z M46,33.5l-7.8-7.9v-6.1l9.2-10.1l5,0l9.2,10.1v6.1   L54,33.5H46z" />
        <polygon
            points="33.2,30.5 35.4,32.7 38.1,31.2 33.8,26.8 33.8,18.5 46.6,4.9 53.4,4.9 66.2,18.5 66.2,26.8 61.9,31.2 64.6,32.7    69.2,28 69.2,17.4 54.7,1.9 45.3,1.9 30.8,17.4 30.8,28 33.2,30.5  " />
        <polygon
            points="82.9,39.5 68.5,31.5 66.4,33.7 80.3,41.5 84.7,62.5 84.7,89.6 83.1,91.5 83.1,95.1 77.5,95.1 77.5,91.6 76,89.6    76,64.4 72.6,55 69.4,55 69.4,89.5 67.2,91.4 67.2,95.1 32.8,95.1 32.8,91.4 30.6,89.5 30.6,55 27.4,55 24,64.4 24,89.6 22.5,91.6    22.5,95.1 16.9,95.1 16.9,91.5 15.3,89.6 15.3,62.5 19.7,41.5 33.6,33.7 31.4,31.5 17.1,39.5 12.3,62 12.3,90.7 13.9,92.6    13.9,98.1 25.5,98.1 25.5,92.6 27,90.7 27,65 27.6,63.1 27.6,90.8 29.8,92.8 29.8,98.1 70.2,98.1 70.2,92.8 72.4,90.8 72.4,63.1    73,65 73,90.7 74.5,92.6 74.5,98.1 86.1,98.1 86.1,92.6 87.7,90.7 87.7,62.3  " />
        <polygon points="32.7,82.6 32.7,82.6 41,70.3 59,70.3 67.2,82.5 67.2,79 60.1,68.3 39.9,68.3 32.7,79.1  " />
    </g>
</svg>