<svg xmlns="http://www.w3.org/2000/svg" viewBox="100 86 310 340">
    <path
        d="M310.62,402.92c-.22-.14-.45-.27-.69-.37s-.49-.17-.75-.23c-.51-.1-1.05-.1-1.56,0-.26,.06-.51,.13-.75,.23-.24,.1-.47,.23-.69,.37-.22,.15-.42,.31-.61,.5-.74,.74-1.17,1.77-1.17,2.83,0,.26,.03,.52,.08,.78,.05,.25,.13,.5,.23,.75,.1,.24,.22,.47,.36,.69,.15,.22,.32,.42,.5,.6,.19,.19,.39,.36,.61,.5,.22,.15,.45,.27,.69,.37,.24,.1,.49,.18,.75,.23,.26,.05,.52,.08,.78,.08,1.05,0,2.08-.43,2.83-1.18,.18-.18,.35-.38,.5-.6,.14-.22,.26-.45,.36-.69,.1-.25,.18-.5,.23-.75,.05-.26,.08-.52,.08-.78,0-1.06-.43-2.09-1.17-2.83-.19-.19-.39-.35-.61-.5Z" />
    <path
        d="M389.05,173c-8.94-2.74-18.6,2.26-21.52,11.15l-18.39,55.95-13.07,6.09c.51-3.65-.13-7.36-1.91-10.67-4.46-8.29-14.91-11.56-23.31-7.3l-44.3,22.52c-7.32,3.72-13.03,9.58-16.55,16.61-3.53-7.02-9.23-12.88-16.55-16.61l-44.3-22.52c-8.39-4.27-18.85-.99-23.31,7.3-1.83,3.39-2.39,7.12-1.9,10.67l-13.08-6.1-18.39-55.95c-2.92-8.89-12.58-13.89-21.52-11.15-8.77,2.68-13.93,11.76-11.75,20.67l15.72,64.33c2.05,8.39,7.18,15.58,14.44,20.25l58.25,37.44v90.56c0,2.21,1.79,4,4,4s4-1.79,4-4v-92.75c0-1.36-.69-2.63-1.84-3.36l-60.08-38.62c-5.53-3.56-9.43-9.03-10.99-15.42l-15.72-64.33c-1.17-4.79,1.61-9.68,6.32-11.12,4.81-1.47,10.01,1.22,11.58,6l18.93,57.6c.35,1.05,1.11,1.91,2.11,2.38l27.81,12.96s.09,.05,.14,.07l16.06,7.47c2,.93,4.38,.06,5.31-1.94,.93-2,.06-4.38-1.94-5.31l-16.02-7.45s-.02-.01-.03-.02l-.11-.05c-.13-.06-.26-.13-.39-.19-4.6-2.48-6.33-8.23-3.85-12.83,2.42-4.49,8.09-6.27,12.64-3.96l44.3,22.52c9.98,5.07,16.18,15.18,16.18,26.38v121.97c0,2.21,1.79,4,4,4s4-1.79,4-4v-121.97c0-11.2,6.2-21.3,16.18-26.38l44.3-22.52c4.55-2.31,10.22-.54,12.64,3.96,1.2,2.23,1.46,4.79,.73,7.21-.73,2.42-2.35,4.42-4.58,5.62-.13,.07-.26,.13-.39,.2l-.11,.05s-.02,.01-.03,.02l-16.03,7.46c-2,.93-2.87,3.31-1.94,5.31s3.31,2.87,5.31,1.94l16.06-7.47s.08-.04,.13-.06l27.82-12.97c1-.47,1.76-1.33,2.11-2.38l18.93-57.6c1.57-4.78,6.76-7.47,11.58-6,4.72,1.44,7.5,6.33,6.32,11.12l-15.72,64.33c-1.56,6.39-5.46,11.86-10.99,15.42l-60.08,38.62c-1.14,.74-1.84,2-1.84,3.36v79.27c0,2.21,1.79,4,4,4s4-1.79,4-4v-77.09l58.25-37.44c7.26-4.67,12.39-11.86,14.44-20.25l15.72-64.33c2.18-8.91-2.99-17.99-11.75-20.67Z" />
    <path
        d="M193.21,164.85c7.41,7.7,22.13,21.46,43.76,40.9,3.81,3.42,7.34,6.58,10.38,9.28,.76,.67,1.71,1.01,2.66,1.01s1.91-.34,2.66-1.02c3.03-2.71,6.57-5.87,10.37-9.28,21.62-19.44,36.34-33.19,43.75-40.89,17.72-15.52,19.59-42.57,4.12-60.38-8.15-9.38-19.95-14.77-32.38-14.77h0s-.06,0-.09,0c-10.5,0-20.65,3.92-28.44,10.86-7.41-6.63-16.82-10.45-26.88-10.84-11.44-.45-22.38,3.6-30.79,11.38-8.41,7.78-13.29,18.37-13.73,29.82-.44,11.45,3.6,22.38,11.38,30.79,1.02,1.1,2.1,2.16,3.23,3.14Zm-6.61-33.62c.36-9.31,4.33-17.93,11.17-24.25,6.5-6.01,14.85-9.28,23.66-9.28,.46,0,.92,0,1.39,.03,9.31,.36,17.93,4.33,24.25,11.17,.76,.82,1.82,1.28,2.94,1.28h0c1.12,0,2.18-.47,2.94-1.29,6.56-7.1,15.86-11.17,25.53-11.17h.05s.06,0,.09,0c10.08,.02,19.65,4.4,26.26,12.01,12.61,14.52,11.06,36.6-3.47,49.21-.09,.08-.18,.16-.26,.25-7.14,7.43-22.16,21.47-43.45,40.61-2.73,2.45-5.32,4.77-7.69,6.88-2.37-2.11-4.96-4.43-7.69-6.88-21.29-19.14-36.32-33.18-43.46-40.61-.08-.09-.17-.17-.26-.25-.96-.83-1.88-1.73-2.74-2.66-6.33-6.84-9.62-15.74-9.25-25.05Z" />

</svg>