<svg xmlns="http://www.w3.org/2000/svg" viewBox="0 0 267 260" version="1.1" fill-rule="evenodd" clip-rule="evenodd">
    <g>
        <path
            d="M154.339,51.53l-14.314,-4.089c2.851,-7.86 6.031,-14.049 9.034,-17.72c1.456,-1.78 1.192,-4.407 -0.588,-5.863c-1.78,-1.456 -4.407,-1.193 -5.863,0.587c-3.537,4.325 -7.372,11.891 -10.735,21.501l-17.862,5.103c-1.433,-4.496 -4.626,-9.448 -8.955,-13.243c-3.885,-3.404 -8.605,-5.895 -13.674,-6.484c-3.787,-3.324 -9.271,-4.908 -13.986,-5.802c-10.026,-1.901 -20.433,-1.027 -30.436,0.55c-2.271,0.358 -3.825,2.493 -3.467,4.764c0.358,2.272 2.493,3.825 4.765,3.467c9.066,-1.429 18.498,-2.316 27.586,-0.593c0.849,0.161 1.745,0.331 2.653,0.536c-0.998,0.599 -1.995,1.295 -2.986,2.093c-2.555,2.056 -8.447,8.355 -5.048,16.62c1.592,3.873 4.742,5.188 8.279,5.015c3.553,-0.173 7.549,-2.281 8.844,-3.198c4.232,-2.995 7.738,-8.153 8.108,-13.381c1.389,0.726 2.689,1.646 3.869,2.68c3.055,2.678 5.408,6.11 6.44,9.264l-35.883,10.253c-8.998,-5.876 -20.676,-11.067 -35.877,-14.467c-2.244,-0.502 -4.474,0.912 -4.976,3.156c-0.502,2.245 0.913,4.474 3.157,4.976c10.621,2.376 19.355,5.701 26.543,9.521l-43.438,12.411l-0.008,0.002c-0.486,0.139 -0.949,0.368 -1.363,0.68c-1.044,0.788 -1.658,2.019 -1.658,3.327l-0,133.471c-0,1.86 1.233,3.495 3.022,4.006l116.667,33.333c0.748,0.214 1.541,0.214 2.289,0l116.667,-33.333c1.788,-0.511 3.022,-2.146 3.022,-4.006l-0,-133.471c-0,-1.308 -0.614,-2.539 -1.658,-3.327c-0.414,-0.312 -0.877,-0.541 -1.364,-0.68l-0.007,-0.002l-46.513,-13.289c11.35,-4.06 21.718,-5.946 26.351,-6.489c2.284,-0.267 3.921,-2.339 3.653,-4.623c-0.267,-2.284 -2.339,-3.921 -4.623,-3.654c-6.327,0.741 -22.58,3.835 -38.33,11.066l-28.768,-8.219c4.543,-5.442 10.592,-10.977 18.262,-14.277c0.394,4.324 3.277,8.276 7.26,10.808c3.882,2.469 8.697,3.509 12.594,2.606c8.946,-2.074 9.614,-12.22 4.985,-18.366c-1.822,-2.419 -4.235,-4.065 -6.918,-5.043c2.063,-1.072 4.207,-1.991 6.309,-2.834c9.311,-3.729 19.579,-5.935 29.629,-5.708c2.299,0.052 4.207,-1.772 4.259,-4.071c0.052,-2.299 -1.772,-4.208 -4.071,-4.26c-11.162,-0.252 -22.574,2.161 -32.916,6.304c-5.839,2.339 -11.863,5.309 -16.424,9.749c-0.243,0.237 -0.48,0.48 -0.712,0.729c-13.959,3.437 -24.167,13.285 -30.826,21.914Zm91.494,59.611l-108.333,30.952l0,102.383l108.333,-30.952l0,-102.383Zm-225,102.383l108.334,30.952l-0,-102.383l-108.334,-30.952l0,102.383Zm116.667,-93.852l0,13.754l108.333,-30.952l0,-13.755l-108.333,30.953Zm-116.667,-17.198l108.334,30.952l-0,-13.754l-108.334,-30.953l0,13.755Zm110.946,-18.458c-0.975,8.947 -1.268,18.3 -0.586,27.568l2.14,0.612l5.791,-1.655c-1.517,-8.995 -0.92,-18.261 0.568,-26.318c-2.675,-0.135 -5.316,-0.202 -7.913,-0.207Zm-8.343,0.189c-2.558,0.121 -5.068,0.297 -7.521,0.519c-0.09,7.868 -0.43,15.813 -1.098,22.181l7.875,2.25c-0.433,-8.401 -0.117,-16.823 0.744,-24.95Zm24.542,0.656c-1.383,7.086 -2.015,15.331 -0.788,23.375l7.11,-2.031c0.647,-7.333 3.037,-13.785 6.629,-19.436l-0.068,-0.013c-2.076,-0.397 -4.16,-0.752 -6.251,-1.062c-2.177,-0.322 -4.362,-0.596 -6.551,-0.825l-0.081,-0.008Zm-40.375,0.811c-4.881,0.67 -9.495,1.504 -13.788,2.424c2.588,4.417 4.256,8.37 5.389,11.354c0.449,1.185 0.909,2.444 1.236,3.347l6.236,1.782c0.526,-5.58 0.82,-12.25 0.927,-18.907Zm62.09,3.062c-3.246,4.346 -5.616,9.307 -6.654,14.974l27.507,-7.859l-0.099,-0.042c-3.309,-1.42 -6.669,-2.717 -10.076,-3.883c-3.493,-1.194 -7.033,-2.249 -10.607,-3.172l-0.071,-0.018Zm-84.499,1.421c-5.455,1.437 -10.174,2.941 -14.001,4.286l19.209,5.488c-1.192,-2.791 -2.85,-6.152 -5.208,-9.774Zm107.203,-19.084c-3.204,1.596 -6.355,3.387 -9.347,5.389c-2.459,1.646 -4.813,3.437 -6.992,5.387c8.823,2.535 17.758,5.975 26.661,10.524l32.114,-9.175l-42.436,-12.125Zm-123.899,1.649l-36.664,10.476l26.171,7.477c3.08,-1.357 10.806,-4.55 21.807,-7.635c-3.019,-3.461 -6.732,-6.976 -11.314,-10.318Zm38.641,-11.04l-28.636,8.182c4.192,3.592 7.586,7.287 10.346,10.868c5.705,-1.317 12.012,-2.509 18.793,-3.398c-0.039,-5.895 -0.219,-11.393 -0.503,-15.652Zm50.486,-0.544c-1.77,2.699 -3.094,5.045 -3.994,6.644c-1.128,2.003 -2.438,5.116 -3.623,8.961c5.441,0.598 10.987,1.485 16.599,2.715c3.468,-3.731 7.482,-7.027 11.808,-9.922c0.873,-0.584 1.758,-1.151 2.651,-1.7l-23.441,-6.698Zm-28.727,-5.673l-13.616,3.89c0.343,4.51 0.573,10.55 0.639,17.077c2.802,-0.244 5.669,-0.429 8.597,-0.545c1.113,-7.224 2.625,-14.112 4.38,-20.422Zm8.54,-0.095c-1.819,6.199 -3.395,13.09 -4.552,20.381c2.86,0.022 5.764,0.114 8.708,0.286c1.513,-5.366 3.289,-9.703 4.775,-12.343c0.725,-1.288 1.701,-2.983 2.932,-4.934l-11.863,-3.39Zm-86.213,-7.895c2.197,0 4.434,0.851 6.391,1.773c2.08,0.981 4.565,0.088 5.545,-1.992c0.981,-2.08 0.088,-4.565 -1.992,-5.545c-3.031,-1.429 -6.542,-2.569 -9.944,-2.569c-2.3,-0 -4.167,1.867 -4.167,4.166c0,2.3 1.867,4.167 4.167,4.167Zm36.112,-7.679c-2.18,0.324 -4.41,1.271 -6.602,3.035c-0.977,0.787 -3.429,2.918 -2.881,5.891c0.054,0.294 0.503,0.832 1.196,0.832c1.624,-0 3.151,-1.176 3.723,-1.581c1.777,-1.258 3.467,-3.169 4.273,-5.278c0.361,-0.944 0.525,-1.944 0.291,-2.899Zm103.08,-2.727c-0.197,0.029 -1.049,0.433 -0.955,1.811c0.131,1.918 1.678,3.48 3.439,4.6c1.939,1.233 4.295,1.971 6.241,1.519c1.088,-0.252 1.409,-1.176 1.367,-2.09c-0.05,-1.101 -0.479,-2.244 -1.157,-3.144c-2.059,-2.734 -5.695,-3.174 -8.935,-2.696Zm41.78,-5.401c-4.535,-0.648 -9.783,1.196 -13.761,3.121c-2.07,1.002 -2.938,3.496 -1.936,5.566c1.002,2.07 3.495,2.937 5.566,1.936c2.611,-1.264 5.976,-2.799 8.953,-2.374c2.276,0.325 4.389,-1.259 4.714,-3.535c0.325,-2.277 -1.259,-4.389 -3.536,-4.714Zm-110.483,-6.567c-0.716,-0.987 -3.287,-3.916 -3.812,-4.226c-1.98,-1.168 -4.537,-0.508 -5.705,1.473c-0.475,0.806 -0.952,2.108 -0.243,3.779c0.163,0.384 2.49,3.145 3.015,3.868c1.332,1.836 2.395,3.824 3.464,5.82c1.086,2.027 3.613,2.791 5.641,1.705c2.027,-1.086 2.791,-3.613 1.705,-5.64c-1.248,-2.329 -2.511,-4.636 -4.065,-6.779Zm48.993,-7.389c-0.596,0.122 -3.982,2.051 -4.981,2.751c-2.17,1.518 -4.116,3.286 -6.055,5.08c-1.689,1.562 -1.791,4.2 -0.23,5.888c1.562,1.688 4.2,1.791 5.888,0.229c1.662,-1.537 3.316,-3.069 5.175,-4.37c0.732,-0.512 3.832,-2.362 4.112,-2.672c1.215,-1.348 1.19,-2.735 1.004,-3.651c-0.458,-2.254 -2.659,-3.712 -4.913,-3.255Z" />
    </g>
</svg>