<svg xmlns="http://www.w3.org/2000/svg" version="1.1" viewBox="0 0 24 24">
    <g>
        <path
            d="M21.466,6.669c-0.127,0-0.254-0.048-0.351-0.144l-3.17-3.114c-0.095-0.094-0.148-0.222-0.148-0.355S17.85,2.794,17.945,2.7   c0.118-0.117,0.343-0.346,0.568-0.575c0.23-0.234,0.461-0.469,0.583-0.59c0.134-0.132,0.329-0.177,0.509-0.119   c1.846,0.612,3.009,1.784,3.458,3.484c0.046,0.172-0.004,0.355-0.13,0.481c-0.114,0.114-0.333,0.34-0.552,0.565   c-0.224,0.229-0.446,0.459-0.563,0.575C21.722,6.62,21.594,6.669,21.466,6.669z M19.006,3.051l2.453,2.411   c0.066-0.068,0.136-0.14,0.205-0.212c0.124-0.127,0.247-0.254,0.353-0.362c-0.379-1.139-1.181-1.934-2.438-2.419   c-0.106,0.106-0.229,0.232-0.353,0.357C19.152,2.903,19.077,2.979,19.006,3.051z" />
        <path
            d="M19.496,12.27L19.496,12.27c-0.133,0-0.26-0.053-0.354-0.146l-2.053-2.055l-0.713,0.71   c-0.195,0.193-0.511,0.194-0.706-0.001l-3.135-3.135c-0.094-0.094-0.146-0.222-0.146-0.354s0.053-0.26,0.147-0.354l0.712-0.709   L10.38,3.354c-0.195-0.195-0.195-0.512,0-0.707l2.429-2.432c0.142-0.142,0.353-0.184,0.539-0.111l4.381,1.746   c0.062,0.025,0.118,0.063,0.166,0.108l2.022,1.988c1.246,1.222,2.486,2.438,3.727,3.679c0.094,0.094,0.146,0.221,0.146,0.354   s-0.053,0.26-0.146,0.354l-3.794,3.791C19.756,12.217,19.629,12.27,19.496,12.27z M17.091,8.862c0.128,0,0.256,0.049,0.354,0.146   l2.052,2.055l3.087-3.084c-1.12-1.116-2.241-2.215-3.366-3.318l-1.952-1.919l-3.981-1.586L11.44,3l2.87,2.873   c0.094,0.094,0.146,0.222,0.146,0.354s-0.053,0.26-0.147,0.354L13.598,7.29l2.428,2.428l0.713-0.711   C16.836,8.91,16.963,8.862,17.091,8.862z" />
        <path
            d="M17.834,23.931c-0.038,0-0.076-0.004-0.114-0.013c-1.907-0.446-3.519-1.33-5.071-2.781   c-0.074-0.07-0.126-0.162-0.147-0.262c-0.188-0.893-0.124-1.839,0.186-2.737l0.407-0.927l-1.582-1.582l-6.507,6.487   c-0.108,0.109-0.264,0.164-0.417,0.142c-1.375-0.18-3.241-0.745-3.563-3.574c-0.017-0.151,0.036-0.303,0.144-0.411l6.503-6.484   l-1.037-1.037c-1.343,0.638-2.788,0.733-4.088,0.271c-0.097-0.034-0.18-0.097-0.239-0.181c-1.235-1.731-1.9-3.444-2.094-5.39   C0.196,5.29,0.259,5.132,0.38,5.026L0.98,4.5c0.207-0.18,0.522-0.161,0.705,0.048l2.275,2.595c0.985-0.364,1.625-0.925,2.113-1.854   L3.798,2.692c-0.088-0.1-0.132-0.23-0.123-0.362c0.009-0.133,0.07-0.256,0.17-0.344l0.599-0.523   c0.123-0.106,0.289-0.149,0.445-0.11c1.907,0.45,3.518,1.333,5.066,2.78c0.075,0.07,0.127,0.162,0.148,0.263   c0.188,0.892,0.124,1.838-0.182,2.735L9.514,7.998l0.977,0.977l2.047-2.04c0.195-0.193,0.511-0.194,0.706,0.001l3.135,3.135   c0.094,0.094,0.146,0.221,0.146,0.354s-0.053,0.261-0.147,0.354l-2.044,2.038l1.683,1.684c1.327-0.619,2.756-0.712,4.043-0.25   c0.096,0.034,0.18,0.097,0.238,0.18c1.234,1.724,1.901,3.436,2.098,5.388c0.017,0.16-0.046,0.319-0.167,0.426l-0.599,0.527   c-0.209,0.181-0.523,0.161-0.706-0.046l-2.276-2.598c-0.988,0.365-1.628,0.927-2.113,1.854l2.276,2.595   c0.088,0.101,0.132,0.23,0.123,0.363s-0.07,0.256-0.17,0.344l-0.6,0.524C18.071,23.888,17.954,23.931,17.834,23.931z M13.45,20.516   c1.314,1.2,2.675,1.958,4.251,2.367l0.026-0.023l-2.166-2.469c-0.129-0.148-0.159-0.357-0.078-0.536   c0.661-1.451,1.639-2.311,3.171-2.786c0.188-0.056,0.396-0.001,0.524,0.148l2.166,2.471l0.026-0.023   c-0.203-1.618-0.778-3.065-1.795-4.521c-0.89-0.28-1.862-0.236-2.798,0.12l0.736,0.736c0.195,0.195,0.195,0.512,0,0.707   l-2.109,2.109c-0.195,0.195-0.512,0.195-0.707,0l-0.846-0.846l-0.236,0.533C13.394,19.153,13.335,19.84,13.45,20.516z M2.05,18.806   c0.226,1.451,0.948,2.173,2.428,2.425l6.646-6.625c0.011-0.013,0.021-0.025,0.034-0.038s0.025-0.024,0.039-0.035l3.205-3.197   c0,0,0,0,0.001,0l0.914-0.912l-2.428-2.428l-2.017,2.012c-0.009,0.01-0.018,0.02-0.027,0.029s-0.02,0.019-0.029,0.027L8.75,12.124   c-0.006,0.007-0.012,0.013-0.018,0.019c-0.006,0.007-0.013,0.013-0.02,0.019L2.05,18.806z M14.051,16.754l1.001,1.001l1.402-1.402   l-2.83-2.829l-1.403,1.4l1.814,1.813C14.04,16.743,14.046,16.749,14.051,16.754z M6.267,8.971l2.111,2.111l1.403-1.4L8.566,8.466   C8.561,8.46,8.556,8.454,8.55,8.45L7.67,7.569L6.267,8.971z M3.028,10.129c0.905,0.282,1.894,0.233,2.846-0.138L5.207,9.325   c-0.195-0.195-0.195-0.512,0-0.707l2.109-2.109c0.195-0.195,0.512-0.195,0.707,0l0.74,0.74l0.232-0.494   C9.211,6.117,9.269,5.43,9.154,4.753C7.842,3.557,6.482,2.799,4.906,2.386L4.88,2.409L7.046,4.88   c0.13,0.148,0.161,0.359,0.078,0.538C6.459,6.87,5.48,7.729,3.952,8.2C3.762,8.261,3.558,8.2,3.429,8.053L1.263,5.582L1.236,5.606   C1.436,7.219,2.011,8.666,3.028,10.129z" />
    </g>
</svg>