<svg xmlns="http://www.w3.org/2000/svg" version="1.1" viewBox="10 10 80 80">
    <path
        d="M60.7548828,31.7875977c0,1.9987183,1.3912964,3.668396,3.2529297,4.1204834v1.6187744  c0,1.184082-0.9633789,2.1474609-2.1474609,2.1474609s-2.1469727-0.9633789-2.1469727-2.1474609c0-0.5522461-0.4477539-1-1-1  s-1,0.4477539-1,1c0,2.2871094,1.8603516,4.1474609,4.1469727,4.1474609c1.3016968,0,2.4508667-0.6148071,3.211792-1.5557251  c0.7573853,0.8469238,1.8460693,1.3911743,3.0689697,1.3911743c2.2788086,0,4.1328125-1.8540039,4.1328125-4.1328125  c0-0.5522461-0.4477539-1-1-1s-1,0.4477539-1,1c0,1.1762695-0.956543,2.1328125-2.1328125,2.1328125  s-2.1328125-0.956543-2.1328125-2.1328125c0-0.0008545-0.0004883-0.0015869-0.0004883-0.0024414v-1.4673462  c1.8601685-0.453186,3.25-2.1218872,3.25-4.1195679c0-2.3442383-1.9072266-4.2514648-4.2514648-4.2514648  S60.7548828,29.4433594,60.7548828,31.7875977z M65.0063477,29.5361328c1.2416992,0,2.2514648,1.0097656,2.2514648,2.2514648  s-1.0097656,2.2514648-2.2514648,2.2514648s-2.2514648-1.0097656-2.2514648-2.2514648S63.7646484,29.5361328,65.0063477,29.5361328z  " />
    <path
        d="M11,90h78c0.5522461,0,1-0.4477539,1-1V77.7836914c0-0.5522461-0.4477539-1-1-1h-7.3190308  c2.3491821-1.7870483,3.8751831-4.6030273,3.8751831-7.7758789c0-2.6437378-1.05896-5.041687-2.7697754-6.8031006  C82.9785767,62.2213745,83.1691895,62.25,83.3632812,62.25C87.0229492,62.25,90,59.2729492,90,55.6132812  c0-5.0430908-4.8146362-9.522522-12.6828613-11.9159546c3.1495361-3.1430664,5.1013184-7.4858398,5.1013184-12.2764282  c0-2.1411133-0.3916016-4.2333984-1.1655273-6.2319336c2.2773438-1.5361328,3.6586914-4.097168,3.6586914-6.8818359  C84.9116211,13.7265625,81.1850586,10,76.6040039,10c-3.1386719,0-6.0117188,1.8032227-7.4106445,4.5698242  c-2.7128906-0.6660156-5.5419922-0.6660156-8.2548828,0C59.5395508,11.8032227,56.6665039,10,53.527832,10  c-4.5810547,0-8.3076172,3.7265625-8.3076172,8.3071289c0,2.784668,1.3808594,5.3457031,3.6582031,6.8818359  c-0.7734375,1.9990234-1.1650391,4.0913086-1.1650391,6.2319336c0,4.8109741,1.9702148,9.168457,5.1433716,12.3146362  c-7.791626,2.4038086-12.5657349,6.8731079-12.5657349,11.8777466c0,3.659668,2.9770508,6.6367188,6.6367188,6.6367188  c0.1364136,0,0.2697754-0.0235596,0.4052734-0.0317993c-1.7034302,1.7601929-2.7578125,4.1524048-2.7578125,6.7896118  c0,3.1728516,1.526123,5.9888306,3.8754883,7.7758789H31.418396c0.6635742-0.3522339,1.3096924-0.7557983,1.928772-1.2207031  c6.4311523-4.8305664,7.7333984-13.9926758,2.9033203-20.4233398c-4.8310547-6.4306641-13.9926758-7.7333984-20.4233398-2.9033203  C9.3964844,57.0668945,8.09375,66.2285156,12.9238281,72.659668c1.3377075,1.7807617,3.0151367,3.151123,4.8668823,4.1240234H11  c-0.5522461,0-1,0.4477539-1,1V89C10,89.5522461,10.4477539,90,11,90z M75.7802734,76.7836914  c-4.2880859,0-7.7763672-3.4882812-7.7763672-7.7758789s3.4882812-7.7758789,7.7763672-7.7758789  c4.2875977,0,7.7758789,3.4882812,7.7758789,7.7758789S80.0678711,76.7836914,75.7802734,76.7836914z M50.069397,60.2330933  c-0.0250244-0.3574219-0.0391235-0.7161255-0.0391235-1.0739136c0-5.0638428,2.4799194-9.717041,6.6503906-12.5565796  c2.4877319,1.3795776,5.3446655,2.1708374,8.3852539,2.1708374c3.1104736,0,6.0252686-0.8334961,8.5525513-2.272583  c4.2641602,2.8283691,6.8009644,7.5231934,6.8009644,12.6583252c0,0.4078369-0.0177002,0.815979-0.0499268,1.2221069  c-1.3695679-0.7315063-2.9310303-1.149353-4.5892334-1.149353c-5.390625,0-9.7763672,4.3852539-9.7763672,9.7758789  c0,1.0192871,0.1578369,2.0021362,0.4485474,2.9266357c-0.9172974,0.1383057-1.8551636,0.1356201-2.770752-0.0078125  c0.2891235-0.9221802,0.4457397-1.9024658,0.4457397-2.9188232c0-5.390625-4.3852539-9.7758789-9.7758789-9.7758789  C52.8144531,59.2319336,51.3646851,59.5983887,50.069397,60.2330933z M62.8585205,73.8074341  c0.7327881,0.1511841,1.4802246,0.2428589,2.2332764,0.2428589c0.7367554,0,1.4689941-0.0877686,2.1875-0.2323608  c0.6577148,1.1575928,1.5457764,2.1638184,2.6000977,2.9657593h-9.6271362  C61.3096924,75.979248,62.2003174,74.9694214,62.8585205,73.8074341z M88,55.6132812  C88,58.1699219,85.9199219,60.25,83.3632812,60.25c-0.3330078,0-0.6594238-0.0479126-0.9810791-0.1173706  c0.0180664-0.3242798,0.0372314-0.6487427,0.0372314-0.9734497c0-5.5281982-2.5963135-10.6068726-7.0026855-13.843811  c0.0235596-0.0175781,0.0471191-0.0350952,0.0705566-0.0527954C83.0964966,47.2704468,88,51.3128052,88,55.6132812z   M49.7133789,31.4208984c0-2.1533203,0.4487305-4.2524414,1.3334961-6.2387695  c0.2143555-0.4814453,0.0185547-1.0463867-0.4482422-1.2919922c-2.0839844-1.0957031-3.378418-3.2348633-3.378418-5.5830078  C47.2202148,14.8295898,50.0498047,12,53.527832,12c2.6162109,0,4.9892578,1.6513672,5.9047852,4.1098633  c0.1835938,0.4931641,0.7158203,0.7568359,1.2241211,0.6088867c2.8808594-0.8632812,5.9375-0.8632812,8.8183594,0  c0.5102539,0.1503906,1.0405273-0.1152344,1.2241211-0.6088867C71.6147461,13.6513672,73.987793,12,76.6040039,12  c3.4780273,0,6.3076172,2.8295898,6.3076172,6.3071289c0,2.3481445-1.2949219,4.4873047-3.3789062,5.5830078  c-0.4667969,0.2456055-0.6625977,0.8110352-0.4482422,1.2924805c0.8852539,1.9858398,1.3339844,4.0844727,1.3339844,6.2382812  c0,8.465332-6.887207,15.3525391-15.3525391,15.3525391S49.7133789,39.8862305,49.7133789,31.4208984z M42.2910156,55.6132812  c0-4.2661743,4.859436-8.303833,12.3929443-10.321167c0.0636597,0.0477905,0.126709,0.0960083,0.190979,0.1428833  c-4.307312,3.2433472-6.8446655,8.2744141-6.8446655,13.7241821c0,0.3118286,0.0172729,0.6240234,0.0340576,0.9359741  C47.6936035,60.1888428,47.3148804,60.25,46.9277344,60.25C44.3710938,60.25,42.2910156,58.1699219,42.2910156,55.6132812z   M46.5751953,69.0078125c0-4.2875977,3.4882812-7.7758789,7.7763672-7.7758789c4.2875977,0,7.7758789,3.4882812,7.7758789,7.7758789  s-3.4882812,7.7758789-7.7758789,7.7758789C50.0634766,76.7836914,46.5751953,73.2954102,46.5751953,69.0078125z   M32.1459961,73.9633789c-2.631897,1.977356-5.7927856,2.7498169-8.835083,2.4378662  c0.7355957-3.0037231,2.4675293-5.6592407,4.9552002-7.52771c2.5046387-1.8812256,5.5579224-2.8053589,8.6723022-2.6582031  C36.3796387,69.2020264,34.7612915,71.9990845,32.1459961,73.9633789z M17.0283203,53.8359375  c2.2607422-1.6982422,4.9125977-2.5180664,7.543457-2.5180664c0.3341064,0,0.666626,0.0302124,0.9992676,0.0565186  c-0.7666626,2.9099121-2.4765015,5.4777832-4.901123,7.2984619c-2.4290161,1.8237305-5.3762207,2.7463379-8.3880615,2.6716919  C12.8814087,58.4481812,14.4829102,55.7477417,17.0283203,53.8359375z M14.5234375,71.4584961  c-1.8238525-2.4282837-2.6343384-5.3077393-2.5042725-8.1277466c0.2035522,0.0080566,0.4076538,0.0296021,0.6107178,0.0296021  c3.3227539,0,6.5576172-1.0727539,9.2412109-3.0878906c2.8427124-2.1351929,4.8267212-5.1641846,5.6807861-8.5921021  c2.7404785,0.6624146,5.2776489,2.2352905,7.098999,4.6604614c1.7719727,2.3587646,2.5784302,5.1431274,2.5042725,7.8855591  c-3.619873-0.199707-7.1791992,0.8616943-10.09021,3.0480347c-2.8915405,2.171875-4.894104,5.2686768-5.7227783,8.7695312  C18.7099609,75.3434448,16.2825317,73.8001709,14.5234375,71.4584961z M12,78.7836914h76V88H12V78.7836914z" />
    <path
        d="M56.2382812,26.0415039c0.5424805,0.1030273,1.0649414-0.2558594,1.1669922-0.7988281  c0.1567383-0.8349609,0.8862305-1.4414062,1.7353516-1.4414062s1.5791016,0.6064453,1.7358398,1.4414062  c0.090332,0.480957,0.5097656,0.815918,0.9819336,0.815918c0.0610352,0,0.1230469-0.0053711,0.1850586-0.0170898  c0.5429688-0.1015625,0.9003906-0.6245117,0.7988281-1.1669922c-0.3339844-1.7807617-1.890625-3.0732422-3.7016602-3.0732422  s-3.3671875,1.2924805-3.7011719,3.0732422C55.3378906,25.4169922,55.6953125,25.9399414,56.2382812,26.0415039z" />
    <path
        d="M67.9692383,26.0415039c0.0620117,0.0117188,0.1240234,0.0170898,0.1850586,0.0170898  c0.4716797,0,0.8916016-0.3354492,0.9819336-0.815918c0.1567383-0.8349609,0.8862305-1.4414062,1.7353516-1.4414062  s1.5791016,0.6064453,1.7358398,1.4418945c0.1020508,0.5424805,0.6230469,0.9008789,1.1674805,0.7983398  c0.5429688-0.1020508,0.9003906-0.6245117,0.7983398-1.1674805c-0.3344727-1.7802734-1.8911133-3.0727539-3.7016602-3.0727539  c-1.8110352,0-3.3671875,1.2924805-3.7011719,3.0732422C67.0688477,25.4169922,67.4262695,25.9399414,67.9692383,26.0415039z" />

</svg>